<svg xmlns="http://www.w3.org/2000/svg" xmlns:xlink="http://www.w3.org/1999/xlink" contentStyleType="text/css" data-diagram-type="CLASS" height="1202px" preserveAspectRatio="none" style="width:2794px;height:1202px;background:#FFFFFF;" version="1.1" viewBox="0 0 2794 1202" width="2794px" zoomAndPan="magnify"><defs/><g><!--class App--><g class="entity" data-entity="App" data-source-line="5" data-uid="ent0002" id="entity_App"><rect fill="#F1F1F1" height="178.375" rx="2.5" ry="2.5" style="stroke:#181818;stroke-width:0.5;" width="264" x="1787.74" y="7"/><ellipse cx="1901.8147" cy="23" fill="#ADD1B2" rx="11" ry="11" style="stroke:#181818;stroke-width:1;"/><path d="M1904.7835,28.6406 Q1904.2053,28.9375 1903.5647,29.0781 Q1902.9241,29.2344 1902.221,29.2344 Q1899.721,29.2344 1898.3928,27.5938 Q1897.0803,25.9375 1897.0803,22.8125 Q1897.0803,19.6875 1898.3928,18.0313 Q1899.721,16.375 1902.221,16.375 Q1902.9241,16.375 1903.5647,16.5313 Q1904.221,16.6875 1904.7835,16.9844 L1904.7835,19.7031 Q1904.1585,19.125 1903.5647,18.8594 Q1902.971,18.5781 1902.346,18.5781 Q1901.0022,18.5781 1900.3147,19.6563 Q1899.6272,20.7188 1899.6272,22.8125 Q1899.6272,24.9063 1900.3147,25.9844 Q1901.0022,27.0469 1902.346,27.0469 Q1902.971,27.0469 1903.5647,26.7813 Q1904.1585,26.5 1904.7835,25.9219 L1904.7835,28.6406 Z " fill="#000000"/><text fill="#000000" font-family="sans-serif" font-size="14" lengthAdjust="spacing" textLength="27.3506" x="1922.3147" y="27.8467">App</text><line style="stroke:#181818;stroke-width:0.5;" x1="1788.74" x2="2050.74" y1="39" y2="39"/><ellipse cx="1798.74" cy="52.6484" fill="none" rx="3" ry="3" style="stroke:#038048;stroke-width:1;"/><text fill="#000000" font-family="sans-serif" font-size="14" lengthAdjust="spacing" textLength="165.6348" x="1807.74" y="55.9951">notebook: ttk.Notebook</text><ellipse cx="1798.74" cy="68.9453" fill="none" rx="3" ry="3" style="stroke:#038048;stroke-width:1;"/><text fill="#000000" font-family="sans-serif" font-size="14" lengthAdjust="spacing" textLength="194.2568" x="1807.74" y="72.292">tabs: List&lt;ExperimentTab&gt;</text><line style="stroke:#181818;stroke-width:0.5;" x1="1788.74" x2="2050.74" y1="79.5938" y2="79.5938"/><ellipse cx="1798.74" cy="93.2422" fill="#84BE84" rx="3" ry="3" style="stroke:#038048;stroke-width:1;"/><text fill="#000000" font-family="sans-serif" font-size="14" lengthAdjust="spacing" textLength="110.5234" x="1807.74" y="96.5889">App(root: tk.Tk)</text><ellipse cx="1798.74" cy="109.5391" fill="#84BE84" rx="3" ry="3" style="stroke:#038048;stroke-width:1;"/><text fill="#000000" font-family="sans-serif" font-size="14" lengthAdjust="spacing" textLength="141.9619" x="1807.74" y="112.8857">add_new_tab(): void</text><ellipse cx="1798.74" cy="125.8359" fill="#84BE84" rx="3" ry="3" style="stroke:#038048;stroke-width:1;"/><text fill="#000000" font-family="sans-serif" font-size="14" lengthAdjust="spacing" textLength="238" x="1807.74" y="129.1826">get_current_tab(): ExperimentTab</text><ellipse cx="1798.74" cy="142.1328" fill="#84BE84" rx="3" ry="3" style="stroke:#038048;stroke-width:1;"/><text fill="#000000" font-family="sans-serif" font-size="14" lengthAdjust="spacing" textLength="173.79" x="1807.74" y="145.4795">close_current_tab(): void</text><ellipse cx="1798.74" cy="158.4297" fill="#84BE84" rx="3" ry="3" style="stroke:#038048;stroke-width:1;"/><text fill="#000000" font-family="sans-serif" font-size="14" lengthAdjust="spacing" textLength="212.6113" x="1807.74" y="161.7764">save_experiment_state(): void</text><ellipse cx="1798.74" cy="174.7266" fill="#84BE84" rx="3" ry="3" style="stroke:#038048;stroke-width:1;"/><text fill="#000000" font-family="sans-serif" font-size="14" lengthAdjust="spacing" textLength="209.7607" x="1807.74" y="178.0732">load_experiment_state(): void</text></g><!--class ExperimentTab--><g class="entity" data-entity="ExperimentTab" data-source-line="16" data-uid="ent0003" id="entity_ExperimentTab"><rect fill="#F1F1F1" height="455.4219" rx="2.5" ry="2.5" style="stroke:#181818;stroke-width:0.5;" width="686.0234" x="1576.73" y="262.37"/><ellipse cx="1862.0381" cy="278.37" fill="#ADD1B2" rx="11" ry="11" style="stroke:#181818;stroke-width:1;"/><path d="M1865.0069,284.0106 Q1864.4287,284.3075 1863.7881,284.4481 Q1863.1475,284.6044 1862.4444,284.6044 Q1859.9444,284.6044 1858.6162,282.9638 Q1857.3037,281.3075 1857.3037,278.1825 Q1857.3037,275.0575 1858.6162,273.4013 Q1859.9444,271.745 1862.4444,271.745 Q1863.1475,271.745 1863.7881,271.9013 Q1864.4444,272.0575 1865.0069,272.3544 L1865.0069,275.0731 Q1864.3819,274.495 1863.7881,274.2294 Q1863.1944,273.9481 1862.5694,273.9481 Q1861.2256,273.9481 1860.5381,275.0263 Q1859.8506,276.0888 1859.8506,278.1825 Q1859.8506,280.2763 1860.5381,281.3544 Q1861.2256,282.4169 1862.5694,282.4169 Q1863.1944,282.4169 1863.7881,282.1513 Q1864.3819,281.87 1865.0069,281.2919 L1865.0069,284.0106 Z " fill="#000000"/><text fill="#000000" font-family="sans-serif" font-size="14" lengthAdjust="spacing" textLength="106.9072" x="1882.5381" y="283.2167">ExperimentTab</text><line style="stroke:#181818;stroke-width:0.5;" x1="1577.73" x2="2261.7534" y1="294.37" y2="294.37"/><ellipse cx="1587.73" cy="308.0184" fill="none" rx="3" ry="3" style="stroke:#038048;stroke-width:1;"/><text fill="#000000" font-family="sans-serif" font-size="14" lengthAdjust="spacing" textLength="89.168" x="1596.73" y="311.3651">app_ref: App</text><ellipse cx="1587.73" cy="324.3153" fill="none" rx="3" ry="3" style="stroke:#038048;stroke-width:1;"/><text fill="#000000" font-family="sans-serif" font-size="14" lengthAdjust="spacing" textLength="165.6348" x="1596.73" y="327.662">notebook: ttk.Notebook</text><ellipse cx="1587.73" cy="340.6122" fill="none" rx="3" ry="3" style="stroke:#038048;stroke-width:1;"/><text fill="#000000" font-family="sans-serif" font-size="14" lengthAdjust="spacing" textLength="97.3643" x="1596.73" y="343.9589">tab_name: str</text><ellipse cx="1587.73" cy="356.9091" fill="none" rx="3" ry="3" style="stroke:#038048;stroke-width:1;"/><text fill="#000000" font-family="sans-serif" font-size="14" lengthAdjust="spacing" textLength="113.3672" x="1596.73" y="360.2557">frame: tk.Frame</text><ellipse cx="1587.73" cy="373.2059" fill="none" rx="3" ry="3" style="stroke:#038048;stroke-width:1;"/><text fill="#000000" font-family="sans-serif" font-size="14" lengthAdjust="spacing" textLength="124.9473" x="1596.73" y="376.5526">tree: ttk.Treeview</text><ellipse cx="1587.73" cy="389.5028" fill="none" rx="3" ry="3" style="stroke:#038048;stroke-width:1;"/><text fill="#000000" font-family="sans-serif" font-size="14" lengthAdjust="spacing" textLength="175.54" x="1596.73" y="392.8495">model_tree: ttk.Treeview</text><ellipse cx="1587.73" cy="405.7997" fill="none" rx="3" ry="3" style="stroke:#038048;stroke-width:1;"/><text fill="#000000" font-family="sans-serif" font-size="14" lengthAdjust="spacing" textLength="152.209" x="1596.73" y="409.1464">video_entry: ttk.Entry</text><ellipse cx="1587.73" cy="422.0966" fill="none" rx="3" ry="3" style="stroke:#038048;stroke-width:1;"/><text fill="#000000" font-family="sans-serif" font-size="14" lengthAdjust="spacing" textLength="151.5869" x="1596.73" y="425.4432">mask_entry: ttk.Entry</text><ellipse cx="1587.73" cy="438.3934" fill="none" rx="3" ry="3" style="stroke:#038048;stroke-width:1;"/><text fill="#000000" font-family="sans-serif" font-size="14" lengthAdjust="spacing" textLength="150.042" x="1596.73" y="441.7401">scale_entry: ttk.Entry</text><ellipse cx="1587.73" cy="454.6903" fill="none" rx="3" ry="3" style="stroke:#038048;stroke-width:1;"/><text fill="#000000" font-family="sans-serif" font-size="14" lengthAdjust="spacing" textLength="193.0264" x="1596.73" y="458.037">graph_plotter: GraphPlotter</text><ellipse cx="1587.73" cy="470.9872" fill="none" rx="3" ry="3" style="stroke:#038048;stroke-width:1;"/><text fill="#000000" font-family="sans-serif" font-size="14" lengthAdjust="spacing" textLength="231.376" x="1596.73" y="474.3339">residuals_panel: ResidualsPlotter</text><ellipse cx="1587.73" cy="487.2841" fill="none" rx="3" ry="3" style="stroke:#038048;stroke-width:1;"/><text fill="#000000" font-family="sans-serif" font-size="14" lengthAdjust="spacing" textLength="230.3506" x="1596.73" y="490.6307">video_processor: VideoProcessor</text><ellipse cx="1587.73" cy="503.5809" fill="none" rx="3" ry="3" style="stroke:#038048;stroke-width:1;"/><text fill="#000000" font-family="sans-serif" font-size="14" lengthAdjust="spacing" textLength="133.3076" x="1596.73" y="506.9276">db_client: DBClient</text><line style="stroke:#181818;stroke-width:0.5;" x1="1577.73" x2="2261.7534" y1="514.2294" y2="514.2294"/><ellipse cx="1587.73" cy="527.8778" fill="#84BE84" rx="3" ry="3" style="stroke:#038048;stroke-width:1;"/><text fill="#000000" font-family="sans-serif" font-size="14" lengthAdjust="spacing" textLength="660.0234" x="1596.73" y="531.2245">ExperimentTab(notebook: ttk.Notebook, app_ref: App, tab_name: str = "Nuevo Experimento")</text><ellipse cx="1587.73" cy="544.1747" fill="#84BE84" rx="3" ry="3" style="stroke:#038048;stroke-width:1;"/><text fill="#000000" font-family="sans-serif" font-size="14" lengthAdjust="spacing" textLength="140.5537" x="1596.73" y="547.5214">importar_csv(): void</text><ellipse cx="1587.73" cy="560.4716" fill="#84BE84" rx="3" ry="3" style="stroke:#038048;stroke-width:1;"/><text fill="#000000" font-family="sans-serif" font-size="14" lengthAdjust="spacing" textLength="178.5137" x="1596.73" y="563.8182">guardar_en_mysql(): void</text><ellipse cx="1587.73" cy="576.7684" fill="#84BE84" rx="3" ry="3" style="stroke:#038048;stroke-width:1;"/><text fill="#000000" font-family="sans-serif" font-size="14" lengthAdjust="spacing" textLength="209.5557" x="1596.73" y="580.1151">show_model_summary(): void</text><ellipse cx="1587.73" cy="593.0653" fill="#84BE84" rx="3" ry="3" style="stroke:#038048;stroke-width:1;"/><text fill="#000000" font-family="sans-serif" font-size="14" lengthAdjust="spacing" textLength="206.1309" x="1596.73" y="596.412">show_diagnostic_tests(): void</text><ellipse cx="1587.73" cy="609.3622" fill="#84BE84" rx="3" ry="3" style="stroke:#038048;stroke-width:1;"/><text fill="#000000" font-family="sans-serif" font-size="14" lengthAdjust="spacing" textLength="194.0176" x="1596.73" y="612.7089">definir_escala_visual(): void</text><ellipse cx="1587.73" cy="625.6591" fill="#84BE84" rx="3" ry="3" style="stroke:#038048;stroke-width:1;"/><text fill="#000000" font-family="sans-serif" font-size="14" lengthAdjust="spacing" textLength="145.5234" x="1596.73" y="629.0057">browse_video(): void</text><ellipse cx="1587.73" cy="641.9559" fill="#84BE84" rx="3" ry="3" style="stroke:#038048;stroke-width:1;"/><text fill="#000000" font-family="sans-serif" font-size="14" lengthAdjust="spacing" textLength="144.9014" x="1596.73" y="645.3026">browse_mask(): void</text><ellipse cx="1587.73" cy="658.2528" fill="#84BE84" rx="3" ry="3" style="stroke:#038048;stroke-width:1;"/><text fill="#000000" font-family="sans-serif" font-size="14" lengthAdjust="spacing" textLength="149.0645" x="1596.73" y="661.5995">process_video(): void</text><ellipse cx="1587.73" cy="674.5497" fill="#84BE84" rx="3" ry="3" style="stroke:#038048;stroke-width:1;"/><text fill="#000000" font-family="sans-serif" font-size="14" lengthAdjust="spacing" textLength="217.9502" x="1596.73" y="677.8964">analizar_datos_de_tabla(): void</text><ellipse cx="1587.73" cy="690.8466" fill="#84BE84" rx="3" ry="3" style="stroke:#038048;stroke-width:1;"/><text fill="#000000" font-family="sans-serif" font-size="14" lengthAdjust="spacing" textLength="111.5078" x="1596.73" y="694.1932">get_state(): dict</text><ellipse cx="1587.73" cy="707.1434" fill="#84BE84" rx="3" ry="3" style="stroke:#038048;stroke-width:1;"/><text fill="#000000" font-family="sans-serif" font-size="14" lengthAdjust="spacing" textLength="447.4805" x="1596.73" y="710.4901">from_state(notebook: ttk.Notebook, state: dict): ExperimentTab</text></g><!--class DBClient--><g class="entity" data-entity="DBClient" data-source-line="44" data-uid="ent0004" id="entity_DBClient"><rect fill="#F1F1F1" height="259.8594" rx="2.5" ry="2.5" style="stroke:#181818;stroke-width:0.5;" width="769.4834" x="7" y="802.94"/><ellipse cx="357.0342" cy="818.94" fill="#ADD1B2" rx="11" ry="11" style="stroke:#181818;stroke-width:1;"/><path d="M360.0029,824.5806 Q359.4248,824.8775 358.7842,825.0181 Q358.1436,825.1744 357.4404,825.1744 Q354.9404,825.1744 353.6123,823.5338 Q352.2998,821.8775 352.2998,818.7525 Q352.2998,815.6275 353.6123,813.9713 Q354.9404,812.315 357.4404,812.315 Q358.1436,812.315 358.7842,812.4713 Q359.4404,812.6275 360.0029,812.9244 L360.0029,815.6431 Q359.3779,815.065 358.7842,814.7994 Q358.1904,814.5181 357.5654,814.5181 Q356.2217,814.5181 355.5342,815.5963 Q354.8467,816.6588 354.8467,818.7525 Q354.8467,820.8463 355.5342,821.9244 Q356.2217,822.9869 357.5654,822.9869 Q358.1904,822.9869 358.7842,822.7213 Q359.3779,822.44 360.0029,821.8619 L360.0029,824.5806 Z " fill="#000000"/><text fill="#000000" font-family="sans-serif" font-size="14" lengthAdjust="spacing" textLength="60.915" x="377.5342" y="823.7867">DBClient</text><line style="stroke:#181818;stroke-width:0.5;" x1="8" x2="775.4834" y1="834.94" y2="834.94"/><rect fill="none" height="6" style="stroke:#C82930;stroke-width:1;" width="6" x="15" y="845.5884"/><text fill="#000000" font-family="sans-serif" font-size="14" lengthAdjust="spacing" textLength="56.6426" x="27" y="851.9351">cfg: dict</text><rect fill="none" height="6" style="stroke:#C82930;stroke-width:1;" width="6" x="15" y="861.8853"/><text fill="#000000" font-family="sans-serif" font-size="14" lengthAdjust="spacing" textLength="92.6133" x="27" y="868.232">database: str</text><rect fill="none" height="6" style="stroke:#C82930;stroke-width:1;" width="6" x="15" y="878.1822"/><text fill="#000000" font-family="sans-serif" font-size="14" lengthAdjust="spacing" textLength="419.9316" x="27" y="884.5289">conn: mysql.connector.connection_cext.CMySQLConnection</text><line style="stroke:#181818;stroke-width:0.5;" x1="8" x2="775.4834" y1="891.8306" y2="891.8306"/><ellipse cx="18" cy="905.4791" fill="#84BE84" rx="3" ry="3" style="stroke:#038048;stroke-width:1;"/><text fill="#000000" font-family="sans-serif" font-size="14" lengthAdjust="spacing" textLength="650.6445" x="27" y="908.8257">DBClient(host: str = "localhost", user: str = "root", password: str = "", database: str = None)</text><ellipse cx="18" cy="921.7759" fill="#84BE84" rx="3" ry="3" style="stroke:#038048;stroke-width:1;"/><text fill="#000000" font-family="sans-serif" font-size="14" lengthAdjust="spacing" textLength="105.5264" x="27" y="925.1226">connect(): void</text><ellipse cx="18" cy="938.0728" fill="#84BE84" rx="3" ry="3" style="stroke:#038048;stroke-width:1;"/><text fill="#000000" font-family="sans-serif" font-size="14" lengthAdjust="spacing" textLength="85.7773" x="27" y="941.4195">close(): void</text><ellipse cx="18" cy="954.3697" fill="#84BE84" rx="3" ry="3" style="stroke:#038048;stroke-width:1;"/><text fill="#000000" font-family="sans-serif" font-size="14" lengthAdjust="spacing" textLength="251.5557" x="27" y="957.7164">create_database(dbname: str): void</text><ellipse cx="18" cy="970.6666" fill="#84BE84" rx="3" ry="3" style="stroke:#038048;stroke-width:1;"/><text fill="#000000" font-family="sans-serif" font-size="14" lengthAdjust="spacing" textLength="249.1973" x="27" y="974.0132">create_measurements_table(): void</text><ellipse cx="18" cy="986.9634" fill="#84BE84" rx="3" ry="3" style="stroke:#038048;stroke-width:1;"/><text fill="#000000" font-family="sans-serif" font-size="14" lengthAdjust="spacing" textLength="494.0195" x="27" y="990.3101">insert_raw_measurement(tiempo: float, radio: float, track_id: int): void</text><ellipse cx="18" cy="1003.2603" fill="#84BE84" rx="3" ry="3" style="stroke:#038048;stroke-width:1;"/><text fill="#000000" font-family="sans-serif" font-size="14" lengthAdjust="spacing" textLength="229.4551" x="27" y="1006.607">delete_all_measurements(): void</text><ellipse cx="18" cy="1019.5572" fill="#84BE84" rx="3" ry="3" style="stroke:#038048;stroke-width:1;"/><text fill="#000000" font-family="sans-serif" font-size="14" lengthAdjust="spacing" textLength="236.5439" x="27" y="1022.9039">drop_measurements_table(): void</text><ellipse cx="18" cy="1035.8541" fill="#84BE84" rx="3" ry="3" style="stroke:#038048;stroke-width:1;"/><text fill="#000000" font-family="sans-serif" font-size="14" lengthAdjust="spacing" textLength="238.9023" x="27" y="1039.2007">drop_database(dbname: str): void</text><ellipse cx="18" cy="1052.1509" fill="#84BE84" rx="3" ry="3" style="stroke:#038048;stroke-width:1;"/><text fill="#000000" font-family="sans-serif" font-size="14" lengthAdjust="spacing" textLength="743.4834" x="27" y="1055.4976">update_measurement(record_id: int, tiempo: float = None, radio: float = None, track_id: int = None): void</text></g><!--class VideoProcessor--><g class="entity" data-entity="VideoProcessor" data-source-line="60" data-uid="ent0005" id="entity_VideoProcessor"><rect fill="#F1F1F1" height="276.1563" rx="2.5" ry="2.5" style="stroke:#181818;stroke-width:0.5;" width="576.6826" x="1244.4" y="794.79"/><ellipse cx="1474.7335" cy="810.79" fill="#ADD1B2" rx="11" ry="11" style="stroke:#181818;stroke-width:1;"/><path d="M1477.7022,816.4306 Q1477.1241,816.7275 1476.4835,816.8681 Q1475.8429,817.0244 1475.1397,817.0244 Q1472.6397,817.0244 1471.3116,815.3838 Q1469.9991,813.7275 1469.9991,810.6025 Q1469.9991,807.4775 1471.3116,805.8213 Q1472.6397,804.165 1475.1397,804.165 Q1475.8429,804.165 1476.4835,804.3213 Q1477.1397,804.4775 1477.7022,804.7744 L1477.7022,807.4931 Q1477.0772,806.915 1476.4835,806.6494 Q1475.8897,806.3681 1475.2647,806.3681 Q1473.921,806.3681 1473.2335,807.4463 Q1472.546,808.5088 1472.546,810.6025 Q1472.546,812.6963 1473.2335,813.7744 Q1473.921,814.8369 1475.2647,814.8369 Q1475.8897,814.8369 1476.4835,814.5713 Q1477.0772,814.29 1477.7022,813.7119 L1477.7022,816.4306 Z " fill="#000000"/><text fill="#000000" font-family="sans-serif" font-size="14" lengthAdjust="spacing" textLength="107.5156" x="1495.2335" y="815.6367">VideoProcessor</text><line style="stroke:#181818;stroke-width:0.5;" x1="1245.4" x2="1820.0826" y1="826.79" y2="826.79"/><ellipse cx="1255.4" cy="840.4384" fill="none" rx="3" ry="3" style="stroke:#038048;stroke-width:1;"/><text fill="#000000" font-family="sans-serif" font-size="14" lengthAdjust="spacing" textLength="91.1504" x="1264.4" y="843.7851">model: YOLO</text><ellipse cx="1255.4" cy="856.7353" fill="none" rx="3" ry="3" style="stroke:#038048;stroke-width:1;"/><text fill="#000000" font-family="sans-serif" font-size="14" lengthAdjust="spacing" textLength="87.8623" x="1264.4" y="860.082">tracker: Sort</text><ellipse cx="1255.4" cy="873.0322" fill="none" rx="3" ry="3" style="stroke:#038048;stroke-width:1;"/><text fill="#000000" font-family="sans-serif" font-size="14" lengthAdjust="spacing" textLength="104.7744" x="1264.4" y="876.3789">video_path: str</text><ellipse cx="1255.4" cy="889.3291" fill="none" rx="3" ry="3" style="stroke:#038048;stroke-width:1;"/><text fill="#000000" font-family="sans-serif" font-size="14" lengthAdjust="spacing" textLength="123.71" x="1264.4" y="892.6757">mask: np.ndarray</text><ellipse cx="1255.4" cy="905.6259" fill="none" rx="3" ry="3" style="stroke:#038048;stroke-width:1;"/><text fill="#000000" font-family="sans-serif" font-size="14" lengthAdjust="spacing" textLength="137.0674" x="1264.4" y="908.9726">pt1: tuple&lt;int, int&gt;</text><ellipse cx="1255.4" cy="921.9228" fill="none" rx="3" ry="3" style="stroke:#038048;stroke-width:1;"/><text fill="#000000" font-family="sans-serif" font-size="14" lengthAdjust="spacing" textLength="137.0674" x="1264.4" y="925.2695">pt2: tuple&lt;int, int&gt;</text><ellipse cx="1255.4" cy="938.2197" fill="none" rx="3" ry="3" style="stroke:#038048;stroke-width:1;"/><text fill="#000000" font-family="sans-serif" font-size="14" lengthAdjust="spacing" textLength="137.6348" x="1264.4" y="941.5664">distancia_real: float</text><ellipse cx="1255.4" cy="954.5166" fill="none" rx="3" ry="3" style="stroke:#038048;stroke-width:1;"/><text fill="#000000" font-family="sans-serif" font-size="14" lengthAdjust="spacing" textLength="85.2715" x="1264.4" y="957.8632">escala: float</text><ellipse cx="1255.4" cy="970.8134" fill="none" rx="3" ry="3" style="stroke:#038048;stroke-width:1;"/><text fill="#000000" font-family="sans-serif" font-size="14" lengthAdjust="spacing" textLength="131.9336" x="1264.4" y="974.1601">table: ttk.Treeview</text><line style="stroke:#181818;stroke-width:0.5;" x1="1245.4" x2="1820.0826" y1="981.4619" y2="981.4619"/><ellipse cx="1255.4" cy="995.1103" fill="#84BE84" rx="3" ry="3" style="stroke:#038048;stroke-width:1;"/><text fill="#000000" font-family="sans-serif" font-size="14" lengthAdjust="spacing" textLength="250.373" x="1264.4" y="998.457">VideoProcessor(table: ttk.Treeview)</text><ellipse cx="1255.4" cy="1011.4072" fill="#84BE84" rx="3" ry="3" style="stroke:#038048;stroke-width:1;"/><text fill="#000000" font-family="sans-serif" font-size="14" lengthAdjust="spacing" textLength="175.8887" x="1264.4" y="1014.7539">set_video(path: str): void</text><ellipse cx="1255.4" cy="1027.7041" fill="#84BE84" rx="3" ry="3" style="stroke:#038048;stroke-width:1;"/><text fill="#000000" font-family="sans-serif" font-size="14" lengthAdjust="spacing" textLength="219.8848" x="1264.4" y="1031.0507">set_mask(mask_path: str): void</text><ellipse cx="1255.4" cy="1044.0009" fill="#84BE84" rx="3" ry="3" style="stroke:#038048;stroke-width:1;"/><text fill="#000000" font-family="sans-serif" font-size="14" lengthAdjust="spacing" textLength="550.6826" x="1264.4" y="1047.3476">set_points(pt1: tuple&lt;int, int&gt;, pt2: tuple&lt;int, int&gt;, distancia_real: float): void</text><ellipse cx="1255.4" cy="1060.2978" fill="#84BE84" rx="3" ry="3" style="stroke:#038048;stroke-width:1;"/><text fill="#000000" font-family="sans-serif" font-size="14" lengthAdjust="spacing" textLength="149.0645" x="1264.4" y="1063.6445">process_video(): void</text></g><!--class GraphPlotter--><g class="entity" data-entity="GraphPlotter" data-source-line="77" data-uid="ent0006" id="entity_GraphPlotter"><rect fill="#F1F1F1" height="162.0781" rx="2.5" ry="2.5" style="stroke:#181818;stroke-width:0.5;" width="384.9961" x="1856.24" y="851.83"/><ellipse cx="1999.8938" cy="867.83" fill="#ADD1B2" rx="11" ry="11" style="stroke:#181818;stroke-width:1;"/><path d="M2002.8626,873.4706 Q2002.2844,873.7675 2001.6438,873.9081 Q2001.0032,874.0644 2000.3001,874.0644 Q1997.8001,874.0644 1996.4719,872.4238 Q1995.1594,870.7675 1995.1594,867.6425 Q1995.1594,864.5175 1996.4719,862.8613 Q1997.8001,861.205 2000.3001,861.205 Q2001.0032,861.205 2001.6438,861.3613 Q2002.3001,861.5175 2002.8626,861.8144 L2002.8626,864.5331 Q2002.2376,863.955 2001.6438,863.6894 Q2001.0501,863.4081 2000.4251,863.4081 Q1999.0813,863.4081 1998.3938,864.4863 Q1997.7063,865.5488 1997.7063,867.6425 Q1997.7063,869.7363 1998.3938,870.8144 Q1999.0813,871.8769 2000.4251,871.8769 Q2001.0501,871.8769 2001.6438,871.6113 Q2002.2376,871.33 2002.8626,870.7519 L2002.8626,873.4706 Z " fill="#000000"/><text fill="#000000" font-family="sans-serif" font-size="14" lengthAdjust="spacing" textLength="89.1885" x="2020.3938" y="872.6767">GraphPlotter</text><line style="stroke:#181818;stroke-width:0.5;" x1="1857.24" x2="2240.2361" y1="883.83" y2="883.83"/><ellipse cx="1867.24" cy="897.4784" fill="none" rx="3" ry="3" style="stroke:#038048;stroke-width:1;"/><text fill="#000000" font-family="sans-serif" font-size="14" lengthAdjust="spacing" textLength="131.9336" x="1876.24" y="900.8251">table: ttk.Treeview</text><ellipse cx="1867.24" cy="913.7753" fill="none" rx="3" ry="3" style="stroke:#038048;stroke-width:1;"/><text fill="#000000" font-family="sans-serif" font-size="14" lengthAdjust="spacing" textLength="113.3672" x="1876.24" y="917.122">frame: tk.Frame</text><ellipse cx="1867.24" cy="930.0722" fill="none" rx="3" ry="3" style="stroke:#038048;stroke-width:1;"/><text fill="#000000" font-family="sans-serif" font-size="14" lengthAdjust="spacing" textLength="215.2363" x="1876.24" y="933.4189">figure: matplotlib.figure.Figure</text><ellipse cx="1867.24" cy="946.3691" fill="none" rx="3" ry="3" style="stroke:#038048;stroke-width:1;"/><text fill="#000000" font-family="sans-serif" font-size="14" lengthAdjust="spacing" textLength="172.6758" x="1876.24" y="949.7157">ax: matplotlib.axes.Axes</text><ellipse cx="1867.24" cy="962.6659" fill="none" rx="3" ry="3" style="stroke:#038048;stroke-width:1;"/><text fill="#000000" font-family="sans-serif" font-size="14" lengthAdjust="spacing" textLength="197.9414" x="1876.24" y="966.0126">canvas: FigureCanvasTkAgg</text><line style="stroke:#181818;stroke-width:0.5;" x1="1857.24" x2="2240.2361" y1="973.3144" y2="973.3144"/><ellipse cx="1867.24" cy="986.9628" fill="#84BE84" rx="3" ry="3" style="stroke:#038048;stroke-width:1;"/><text fill="#000000" font-family="sans-serif" font-size="14" lengthAdjust="spacing" textLength="358.9961" x="1876.24" y="990.3095">GraphPlotter(parent: tk.Frame, table: ttk.Treeview)</text><ellipse cx="1867.24" cy="1003.2597" fill="#84BE84" rx="3" ry="3" style="stroke:#038048;stroke-width:1;"/><text fill="#000000" font-family="sans-serif" font-size="14" lengthAdjust="spacing" textLength="132.877" x="1876.24" y="1006.6064">update_plot(): void</text></g><!--class ResidualsPlotter--><g class="entity" data-entity="ResidualsPlotter" data-source-line="87" data-uid="ent0007" id="entity_ResidualsPlotter"><rect fill="#F1F1F1" height="194.6719" rx="2.5" ry="2.5" style="stroke:#181818;stroke-width:0.5;" width="445.8428" x="2275.82" y="835.54"/><ellipse cx="2437.8454" cy="851.54" fill="#ADD1B2" rx="11" ry="11" style="stroke:#181818;stroke-width:1;"/><path d="M2440.8141,857.1806 Q2440.236,857.4775 2439.5954,857.6181 Q2438.9548,857.7744 2438.2516,857.7744 Q2435.7516,857.7744 2434.4235,856.1338 Q2433.111,854.4775 2433.111,851.3525 Q2433.111,848.2275 2434.4235,846.5713 Q2435.7516,844.915 2438.2516,844.915 Q2438.9548,844.915 2439.5954,845.0713 Q2440.2516,845.2275 2440.8141,845.5244 L2440.8141,848.2431 Q2440.1891,847.665 2439.5954,847.3994 Q2439.0016,847.1181 2438.3766,847.1181 Q2437.0329,847.1181 2436.3454,848.1963 Q2435.6579,849.2588 2435.6579,851.3525 Q2435.6579,853.4463 2436.3454,854.5244 Q2437.0329,855.5869 2438.3766,855.5869 Q2439.0016,855.5869 2439.5954,855.3213 Q2440.1891,855.04 2440.8141,854.4619 L2440.8141,857.1806 Z " fill="#000000"/><text fill="#000000" font-family="sans-serif" font-size="14" lengthAdjust="spacing" textLength="113.292" x="2458.3454" y="856.3867">ResidualsPlotter</text><line style="stroke:#181818;stroke-width:0.5;" x1="2276.82" x2="2720.6628" y1="867.54" y2="867.54"/><ellipse cx="2286.82" cy="881.1884" fill="none" rx="3" ry="3" style="stroke:#038048;stroke-width:1;"/><text fill="#000000" font-family="sans-serif" font-size="14" lengthAdjust="spacing" textLength="131.9336" x="2295.82" y="884.5351">table: ttk.Treeview</text><ellipse cx="2286.82" cy="897.4853" fill="none" rx="3" ry="3" style="stroke:#038048;stroke-width:1;"/><text fill="#000000" font-family="sans-serif" font-size="14" lengthAdjust="spacing" textLength="113.3672" x="2295.82" y="900.832">frame: tk.Frame</text><ellipse cx="2286.82" cy="913.7822" fill="none" rx="3" ry="3" style="stroke:#038048;stroke-width:1;"/><text fill="#000000" font-family="sans-serif" font-size="14" lengthAdjust="spacing" textLength="191.9941" x="2295.82" y="917.1289">fig: matplotlib.figure.Figure</text><ellipse cx="2286.82" cy="930.0791" fill="none" rx="3" ry="3" style="stroke:#038048;stroke-width:1;"/><text fill="#000000" font-family="sans-serif" font-size="14" lengthAdjust="spacing" textLength="236.5166" x="2295.82" y="933.4257">axes: List&lt;matplotlib.axes.Axes&gt;</text><ellipse cx="2286.82" cy="946.3759" fill="none" rx="3" ry="3" style="stroke:#038048;stroke-width:1;"/><text fill="#000000" font-family="sans-serif" font-size="14" lengthAdjust="spacing" textLength="197.9414" x="2295.82" y="949.7226">canvas: FigureCanvasTkAgg</text><line style="stroke:#181818;stroke-width:0.5;" x1="2276.82" x2="2720.6628" y1="957.0244" y2="957.0244"/><ellipse cx="2286.82" cy="970.6728" fill="#84BE84" rx="3" ry="3" style="stroke:#038048;stroke-width:1;"/><text fill="#000000" font-family="sans-serif" font-size="14" lengthAdjust="spacing" textLength="383.0996" x="2295.82" y="974.0195">ResidualsPlotter(parent: tk.Frame, table: ttk.Treeview)</text><rect fill="#F24D5C" height="6" style="stroke:#C82930;stroke-width:1;" width="6" x="2283.82" y="983.9697"/><text fill="#000000" font-family="sans-serif" font-size="14" lengthAdjust="spacing" textLength="419.8428" x="2295.82" y="990.3164">_extract_data_from_table(): tuple&lt;np.ndarray, np.ndarray&gt;</text><rect fill="#F24D5C" height="6" style="stroke:#C82930;stroke-width:1;" width="6" x="2283.82" y="1000.2666"/><text fill="#000000" font-family="sans-serif" font-size="14" lengthAdjust="spacing" textLength="360.8555" x="2295.82" y="1006.6132">_prepare_model(t: np.ndarray, r: np.ndarray): tuple</text><ellipse cx="2286.82" cy="1019.5634" fill="#84BE84" rx="3" ry="3" style="stroke:#038048;stroke-width:1;"/><text fill="#000000" font-family="sans-serif" font-size="14" lengthAdjust="spacing" textLength="202.9521" x="2295.82" y="1022.9101">update_residual_plots(): void</text></g><!--class YOLO--><g class="entity" data-entity="YOLO" data-source-line="110" data-uid="ent0013" id="entity_YOLO"><rect fill="#F1F1F1" height="48" rx="2.5" ry="2.5" style="stroke:#181818;stroke-width:0.5;" width="70.3906" x="1446.55" y="1147.95"/><ellipse cx="1461.55" cy="1163.95" fill="#ADD1B2" rx="11" ry="11" style="stroke:#181818;stroke-width:1;"/><path d="M1464.5188,1169.5906 Q1463.9406,1169.8875 1463.3,1170.0281 Q1462.6594,1170.1844 1461.9563,1170.1844 Q1459.4563,1170.1844 1458.1281,1168.5438 Q1456.8156,1166.8875 1456.8156,1163.7625 Q1456.8156,1160.6375 1458.1281,1158.9813 Q1459.4563,1157.325 1461.9563,1157.325 Q1462.6594,1157.325 1463.3,1157.4813 Q1463.9563,1157.6375 1464.5188,1157.9344 L1464.5188,1160.6531 Q1463.8938,1160.075 1463.3,1159.8094 Q1462.7063,1159.5281 1462.0813,1159.5281 Q1460.7375,1159.5281 1460.05,1160.6063 Q1459.3625,1161.6688 1459.3625,1163.7625 Q1459.3625,1165.8563 1460.05,1166.9344 Q1460.7375,1167.9969 1462.0813,1167.9969 Q1462.7063,1167.9969 1463.3,1167.7313 Q1463.8938,1167.45 1464.5188,1166.8719 L1464.5188,1169.5906 Z " fill="#000000"/><text fill="#000000" font-family="sans-serif" font-size="14" lengthAdjust="spacing" textLength="38.3906" x="1475.55" y="1168.7967">YOLO</text><line style="stroke:#181818;stroke-width:0.5;" x1="1447.55" x2="1515.9406" y1="1179.95" y2="1179.95"/><line style="stroke:#181818;stroke-width:0.5;" x1="1447.55" x2="1515.9406" y1="1187.95" y2="1187.95"/></g><!--class Sort--><g class="entity" data-entity="Sort" data-source-line="111" data-uid="ent0015" id="entity_Sort"><rect fill="#F1F1F1" height="48" rx="2.5" ry="2.5" style="stroke:#181818;stroke-width:0.5;" width="60.6973" x="1552.39" y="1147.95"/><ellipse cx="1567.39" cy="1163.95" fill="#ADD1B2" rx="11" ry="11" style="stroke:#181818;stroke-width:1;"/><path d="M1570.3588,1169.5906 Q1569.7806,1169.8875 1569.14,1170.0281 Q1568.4994,1170.1844 1567.7963,1170.1844 Q1565.2963,1170.1844 1563.9681,1168.5438 Q1562.6556,1166.8875 1562.6556,1163.7625 Q1562.6556,1160.6375 1563.9681,1158.9813 Q1565.2963,1157.325 1567.7963,1157.325 Q1568.4994,1157.325 1569.14,1157.4813 Q1569.7963,1157.6375 1570.3588,1157.9344 L1570.3588,1160.6531 Q1569.7338,1160.075 1569.14,1159.8094 Q1568.5463,1159.5281 1567.9213,1159.5281 Q1566.5775,1159.5281 1565.89,1160.6063 Q1565.2025,1161.6688 1565.2025,1163.7625 Q1565.2025,1165.8563 1565.89,1166.9344 Q1566.5775,1167.9969 1567.9213,1167.9969 Q1568.5463,1167.9969 1569.14,1167.7313 Q1569.7338,1167.45 1570.3588,1166.8719 L1570.3588,1169.5906 Z " fill="#000000"/><text fill="#000000" font-family="sans-serif" font-size="14" lengthAdjust="spacing" textLength="28.6973" x="1581.39" y="1168.7967">Sort</text><line style="stroke:#181818;stroke-width:0.5;" x1="1553.39" x2="1612.0873" y1="1179.95" y2="1179.95"/><line style="stroke:#181818;stroke-width:0.5;" x1="1553.39" x2="1612.0873" y1="1187.95" y2="1187.95"/></g><path d="M2297.68,472.52 L2297.68,481.0864 L1737.2837,542.6747 L2297.68,489.0864 L2297.68,497.6528 A0,0 0 0 0 2297.68,497.6528 L2787.8035,497.6528 A0,0 0 0 0 2787.8035,497.6528 L2787.8035,482.52 L2777.8035,472.52 L2297.68,472.52 A0,0 0 0 0 2297.68,472.52" fill="#FEFFDD" style="stroke:#181818;stroke-width:0.5;"/><path d="M2777.8035,472.52 L2777.8035,482.52 L2787.8035,482.52 L2777.8035,472.52" fill="#FEFFDD" style="stroke:#181818;stroke-width:0.5;"/><text fill="#000000" font-family="sans-serif" font-size="13" lengthAdjust="spacing" textLength="469.1235" x="2303.68" y="489.5869">Polimorfismo funcional: adapta delimitador seg&#250;n contenido del archivo</text><path d="M811.61,915.31 L811.61,923.8764 L770.4834,1050.6509 L811.61,931.8764 L811.61,940.4428 A0,0 0 0 0 811.61,940.4428 L1209.8829,940.4428 A0,0 0 0 0 1209.8829,940.4428 L1209.8829,925.31 L1199.8829,915.31 L811.61,915.31 A0,0 0 0 0 811.61,915.31" fill="#FEFFDD" style="stroke:#181818;stroke-width:0.5;"/><path d="M1199.8829,915.31 L1199.8829,925.31 L1209.8829,925.31 L1199.8829,915.31" fill="#FEFFDD" style="stroke:#181818;stroke-width:0.5;"/><text fill="#000000" font-family="sans-serif" font-size="13" lengthAdjust="spacing" textLength="377.2729" x="817.61" y="932.3769">Polimorfismo param&#233;trico: acepta argumentos opcionales</text><!--reverse link App to ExperimentTab--><g class="link" data-entity-1="App" data-entity-2="ExperimentTab" data-source-line="103" data-uid="lnk8" id="link_App_ExperimentTab"><path codeLine="103" d="M1919.74,197.62 C1919.74,220.88 1919.74,235.05 1919.74,262.04" fill="none" id="App-backto-ExperimentTab" style="stroke:#181818;stroke-width:1;"/><polygon fill="none" points="1919.74,185.62,1915.74,191.62,1919.74,197.62,1923.74,191.62,1919.74,185.62" style="stroke:#181818;stroke-width:1;"/><text fill="#000000" font-family="sans-serif" font-size="13" lengthAdjust="spacing" textLength="28.0884" x="1920.74" y="228.4369">tabs</text><text fill="#000000" font-family="sans-serif" font-size="13" lengthAdjust="spacing" textLength="8.271" x="1911.432" y="205.4165">1</text><text fill="#000000" font-family="sans-serif" font-size="13" lengthAdjust="spacing" textLength="23.0356" x="1896.3632" y="251.3804">1..*</text></g><!--reverse link ExperimentTab to GraphPlotter--><g class="link" data-entity-1="ExperimentTab" data-entity-2="GraphPlotter" data-source-line="105" data-uid="lnk9" id="link_ExperimentTab_GraphPlotter"><path codeLine="105" d="M1989.5988,729.7774 C2003.5888,777.6074 2014.1,813.5 2025.21,851.46" fill="none" id="ExperimentTab-backto-GraphPlotter" style="stroke:#181818;stroke-width:1;"/><polygon fill="#181818" points="1986.23,718.26,1984.0752,725.1416,1989.5988,729.7774,1991.7535,722.8958,1986.23,718.26" style="stroke:#181818;stroke-width:1;"/><text fill="#000000" font-family="sans-serif" font-size="13" lengthAdjust="spacing" textLength="87.9087" x="2000.74" y="760.8569">graph_plotter</text><text fill="#000000" font-family="sans-serif" font-size="13" lengthAdjust="spacing" textLength="8.271" x="1980.2848" y="738.0623">1</text><text fill="#000000" font-family="sans-serif" font-size="13" lengthAdjust="spacing" textLength="8.271" x="2014.856" y="840.892">1</text></g><!--reverse link ExperimentTab to ResidualsPlotter--><g class="link" data-entity-1="ExperimentTab" data-entity-2="ResidualsPlotter" data-source-line="106" data-uid="lnk10" id="link_ExperimentTab_ResidualsPlotter"><path codeLine="106" d="M2227.6983,725.5284 C2281.8083,766.7184 2325.96,800.33 2371.67,835.13" fill="none" id="ExperimentTab-backto-ResidualsPlotter" style="stroke:#181818;stroke-width:1;"/><polygon fill="#181818" points="2218.15,718.26,2220.5013,725.077,2227.6983,725.5284,2225.347,718.7114,2218.15,718.26" style="stroke:#181818;stroke-width:1;"/><text fill="#000000" font-family="sans-serif" font-size="13" lengthAdjust="spacing" textLength="101.1372" x="2279.74" y="760.8569">residuals_panel</text><text fill="#000000" font-family="sans-serif" font-size="13" lengthAdjust="spacing" textLength="8.271" x="2219.8147" y="738.0623">1</text><text fill="#000000" font-family="sans-serif" font-size="13" lengthAdjust="spacing" textLength="8.271" x="2354.0544" y="824.4728">1</text></g><!--reverse link ExperimentTab to VideoProcessor--><g class="link" data-entity-1="ExperimentTab" data-entity-2="VideoProcessor" data-source-line="107" data-uid="lnk11" id="link_ExperimentTab_VideoProcessor"><path codeLine="107" d="M1712.3718,727.2767 C1689.5218,753.2967 1674.7,770.18 1653.35,794.5" fill="none" id="ExperimentTab-backto-VideoProcessor" style="stroke:#181818;stroke-width:1;"/><polygon fill="none" points="1720.29,718.26,1713.3253,720.129,1712.3718,727.2767,1719.3365,725.4078,1720.29,718.26" style="stroke:#181818;stroke-width:1;"/><text fill="#000000" font-family="sans-serif" font-size="13" lengthAdjust="spacing" textLength="105.5488" x="1692.74" y="760.8569">video_processor</text><text fill="#000000" font-family="sans-serif" font-size="13" lengthAdjust="spacing" textLength="8.271" x="1705.6187" y="738.0623">1</text><text fill="#000000" font-family="sans-serif" font-size="13" lengthAdjust="spacing" textLength="8.271" x="1651.7344" y="783.5934">1</text></g><!--reverse link ExperimentTab to DBClient--><g class="link" data-entity-1="ExperimentTab" data-entity-2="DBClient" data-source-line="108" data-uid="lnk12" id="link_ExperimentTab_DBClient"><path codeLine="108" d="M1564.6219,580.5331 C1340.7419,638.4031 1054.46,715.27 793.74,794.79 C785.54,797.29 777.26,799.85 768.92,802.45" fill="none" id="ExperimentTab-backto-DBClient" style="stroke:#181818;stroke-width:1;"/><polygon fill="none" points="1576.24,577.53,1569.4299,575.1589,1564.6219,580.5331,1571.432,582.9043,1576.24,577.53" style="stroke:#181818;stroke-width:1;"/><text fill="#000000" font-family="sans-serif" font-size="13" lengthAdjust="spacing" textLength="58.7095" x="947.74" y="760.8569">db_client</text><text fill="#000000" font-family="sans-serif" font-size="13" lengthAdjust="spacing" textLength="8.271" x="1560.0986" y="576.4723">1</text><text fill="#000000" font-family="sans-serif" font-size="13" lengthAdjust="spacing" textLength="24.8066" x="764.9127" y="791.978">0..1</text></g><!--reverse link VideoProcessor to YOLO--><g class="link" data-entity-1="VideoProcessor" data-entity-2="YOLO" data-source-line="110" data-uid="lnk14" id="link_VideoProcessor_YOLO"><path codeLine="110" d="M1500.627,1083.1718 C1494.257,1112.7918 1490.76,1129.05 1486.73,1147.75" fill="none" id="VideoProcessor-backto-YOLO" style="stroke:#181818;stroke-width:1;"/><polygon fill="#181818" points="1503.15,1071.44,1497.9779,1076.4649,1500.627,1083.1718,1505.7991,1078.1469,1503.15,1071.44" style="stroke:#181818;stroke-width:1;"/><text fill="#000000" font-family="sans-serif" font-size="13" lengthAdjust="spacing" textLength="40.479" x="1496.74" y="1114.0169">model</text></g><!--reverse link VideoProcessor to Sort--><g class="link" data-entity-1="VideoProcessor" data-entity-2="Sort" data-source-line="111" data-uid="lnk16" id="link_VideoProcessor_Sort"><path codeLine="111" d="M1564.2275,1083.1815 C1570.4775,1112.8015 1573.9,1129.05 1577.85,1147.75" fill="none" id="VideoProcessor-backto-Sort" style="stroke:#181818;stroke-width:1;"/><polygon fill="#181818" points="1561.75,1071.44,1559.0749,1078.1366,1564.2275,1083.1815,1566.9026,1076.4849,1561.75,1071.44" style="stroke:#181818;stroke-width:1;"/><text fill="#000000" font-family="sans-serif" font-size="13" lengthAdjust="spacing" textLength="46.4268" x="1571.74" y="1114.0169">tracker</text></g><!--SRC=[dLRDSjis4BxhAJ2wM4ajJjCZ9_MCgpgzs4wQk9tf2RCYLX969C02e6GtquVfiUVUUlMBTHSK6PAYgrO-oCJ-O7S_xD_5_7__JIx48WUFNZo9w-3qiWhMYymQSMy3PFhvBoDkV7Z-moXmugUxsyd56KOc6TdmuheinUU945yP6t1fxJOL8MoJ-yE9EG6MFXMtseUtDuybEbsW2G-ml68cwS-SjO7Kjid3zXNJG2bfS2z9SVOg5Jkh5PFN66HMEKVQ3Qjt7yjakVKub6ekyB13YQsAz042TWLo2-fbWT-Rc7jMw-YXBAN3LSfud4H36YWm5Juu9gnSF97OE_wACWwnrdoWhvt6FLCBgp2NuxoTLcWbUUIUQkODVqOjyDjHXiyWnr7Esa6vaMLkGq2NYX_u-A4-CTkXrwg2tCiI3EQf-DWGEaArGwMp6NflwPQVcV2XERE8Mieir-H0Ahx_RX6_cDn3TpOEvANe0dufUg2ARyNqliATxJoKdSRCqaLfNG0dCx_hfLO5Zeg1q935a_yrxsNDnkvbZRslYWBSqn5NQLWRwuFEP40VV5T0uKeRJLSptY1tsXDINO6bitlAsGZO29tVhqi-G7ei3mPo_Hi5eO3gNIhazCzXM45jJYkTXJh_R76WlWHsvDOQHqNNLaNpXh4WvjbgtPgOaqUmf8xKvFoScf59HOGwuM_CWdNDbxP6PlWOaiNTqwSVRnSjbRrjhCmsX7VxtBabS9aolHILvwGzCBYr4Aqa1_VMgPPEj9vJHBkt1cEI7Dpe0XVRIe_Wa22HpHqpjMpJxrYgGF2LGqRCnqVfNQKDEHoaWtrNS1OqKhAcOaLDALmA1qf_EGK7sLPgYaURq4ks7CaWv7dFQ2yVdIrFU1H5JeHMbMeGsinXHX0tNf6JtGWE0FS3QOczU9gt6BRTVWUf-swiorJyylxsVTquwHv-_azKvfqs167Jzbikg5IOCk7nvo1sl3AyePoloXpVHjVfvwgcVpDALpJCm6GQg0T1VeY66NMLTmWHtED-tOzbDY8LKz5JmTQ5teRGxJt4ZUqXzlYN94ghEGN6GgJ260cGIcCil9Czg7sexi2ed-a554P6tqglAP-eDq3W0PJhPLAJadVnN-nqZpq-FA9FhkadbXoO7T2wKKilukbXUxrUCxFh627guknfhCSfCleAXrndUyV13eVV6G6VYXQRzMaiwAkJKGyz_E-HpsaPuf8AiHl8E2dQRb5dpPSwkkpKr5LKBXsogNfupaAtwAWFT8_DTHsqcoqZmkwxk5-SjH9_n9nsN-ehzIgye86lUM8gK75J7jcDpzkBUIEUlfaAEv_J_oHvFHqiZ2d3xIUJFfLLNaULQR-0Kj7Rn_v5xIWLKp7OrKQKxK5vq5q9xlu6zvBgrqb2d-tmfw7Vh7MJoU1EzfCxDGd5b1ZZS-DcXEf6VkvZVx2vBgnRQLzOWKRSFVyPhBB-l1VbjKWulTu4OLVznqpJxaf9wTkplAeCfnotK51G1X0KjIvq04NXUbm__squ6mCQhImp1RXietTsWaO9jZkqtW2TfiSJU6YUYWyAYjpfZ2OkPCWUW5jNSIFsmfQrTzGv6tF_0000]--></g></svg>